<svg width="27" height="16" viewBox="0 0 27 16" fill="none" xmlns="http://www.w3.org/2000/svg">
<path d="M17.5173 7.99843C17.5173 9.98736 15.7997 11.5997 13.6809 11.5997C11.5622 11.5997 9.84462 9.98736 9.84462 7.99843C9.84462 6.00947 11.5622 4.39713 13.6809 4.39713C15.7997 4.39711 17.5173 6.00949 17.5173 7.99843ZM13.6879 0.5C11.4942 0.509535 9.22031 1.03281 7.06781 2.03466C5.46961 2.80915 3.91207 3.90186 2.56005 5.25058C1.89601 5.93905 1.04904 6.93595 0.912109 7.99959C0.928292 8.92095 1.93694 10.0582 2.56005 10.7486C3.8279 12.0444 5.34487 13.1066 7.06781 13.9653C9.07512 14.9199 11.2969 15.4694 13.6879 15.5C15.8837 15.4903 18.157 14.961 20.3071 13.9653C21.9053 13.1908 23.4636 12.0974 24.8157 10.7486C25.4797 10.0602 26.3267 9.06324 26.4636 7.99959C26.4474 7.07824 25.4388 5.94097 24.8157 5.25054C23.5478 3.95479 22.0301 2.8934 20.3071 2.03461C18.3009 1.08082 16.0736 0.53503 13.6879 0.5ZM13.6863 2.36203C17.0105 2.36203 19.7052 4.88638 19.7052 8.00041C19.7052 11.1144 17.0105 13.6388 13.6863 13.6388C10.362 13.6388 7.66727 11.1144 7.66727 8.00041C7.66727 4.88638 10.362 2.36203 13.6863 2.36203Z" fill="white"/>
</svg>